<svg id="Layer_1" data-name="Layer 1" xmlns="http://www.w3.org/2000/svg" viewBox="0 0 511.9 512"><defs><style>.cls-1{fill:#141f38;}.cls-2{fill:#79d3d3;}.cls-3{fill:#f4607f;}.cls-4{fill:#d9e4e8;}.cls-5{opacity:0.14;}.cls-6{fill:#17292d;}</style></defs><title>r2d2_style_3</title><path class="cls-1" d="M320.19,372.06l1.48-.86"/><path class="cls-1" d="M320.19,372.06l1.48-.86"/><path class="cls-2" d="M95.59,221.61A138.48,138.48,0,0,1,147,31.51,141.53,141.53,0,0,1,217.2,12.8c50.16,0,96.86,26.7,121.89,69.67l6.29,10.79L102,232.57Z"/><path class="cls-1" d="M204.56,378.49a38.32,38.32,0,0,1-8.79-10.31l-6.84-11.74-14.86-25.53-14.7,25.63,14.28,24.52c.19.33.39.66.59,1a63.86,63.86,0,0,0,17.43,18.86,64.87,64.87,0,0,0,23.47,10.55l13.79-24A39.44,39.44,0,0,1,204.56,378.49Z"/><path class="cls-3" d="M189.53,122.94a6.65,6.65,0,0,1-5.73-3.25l-12.58-21.6a6.21,6.21,0,0,1-.64-4.77,6.37,6.37,0,0,1,3-3.9l32.86-18.81a6.67,6.67,0,0,1,9,2.37l12.58,21.6a6.25,6.25,0,0,1,.64,4.78,6.37,6.37,0,0,1-3,3.89l-32.86,18.81A6.64,6.64,0,0,1,189.53,122.94Z"/><path class="cls-1" d="M207.55,84.75l6.18,10.61-22,12.57-6.18-10.61,22-12.57m2.23-27.81a19.42,19.42,0,0,0-9.67,2.58l-32.86,18.8a19.11,19.11,0,0,0-7.09,26.23l12.58,21.6a19.47,19.47,0,0,0,26.46,7l32.86-18.8a19.11,19.11,0,0,0,7.09-26.23l-12.58-21.6a19.4,19.4,0,0,0-16.79-9.6Z"/><path class="cls-4" d="M270.08,265a25.31,25.31,0,0,1-21.86-12.61A25.22,25.22,0,0,1,270,214.59a25.29,25.29,0,0,1,21.86,12.61A25.21,25.21,0,0,1,270.08,265Z"/><path class="cls-4" d="M139.64,145.42l-12.77-21.93a6.47,6.47,0,0,0-8.78-2.3L77,144.71A138.59,138.59,0,0,0,81,186l56.28-32.21a6.16,6.16,0,0,0,2.94-3.78A6,6,0,0,0,139.64,145.42Z"/><path class="cls-4" d="M433.41,274.16a50.93,50.93,0,0,1-24.11,31.21l-3.55,2,.08.43v.06l7.92,38.68a18.84,18.84,0,0,1-9.05,20.12l-30,17.31h9.47v76.8h10.53a5.43,5.43,0,0,1,4.89,3.79l9.7,25.61a7.24,7.24,0,0,1-.77,6.66,5,5,0,0,1-4.13,2.34H312.77a5,5,0,0,1-4.13-2.34,7.23,7.23,0,0,1-.76-6.67l9.68-25.59a5.45,5.45,0,0,1,4.9-3.8H333V408.09l-20.4,11.78a18.86,18.86,0,0,1-21.95-2.22l-25.87-22.94-4.68-4-4.59,2.63a51.94,51.94,0,0,1-46.3,2.73L172,460.8h17.8a5.52,5.52,0,0,1,5,3.81l9.74,25.61a7.15,7.15,0,0,1-.76,6.6,5.07,5.07,0,0,1-4.22,2.38H95.26A5.14,5.14,0,0,1,91,496.81a7.1,7.1,0,0,1-.75-6.59l9.73-25.6a5.51,5.51,0,0,1,5-3.82h9.31l59.85-104.31L102.08,232.75,345.49,93.45l82.74,142A50.39,50.39,0,0,1,433.41,274.16Z"/><g class="cls-5"><path class="cls-6" d="M439.29,229.05,350.16,76C307.81,3.32,214-21.59,140.66,20.39c-4.17,2.38-8.16,5-12,7.66C196,16.44,266.42,46.63,302.57,108.7L400,275.94a69.06,69.06,0,0,1,8.73,44.5l6.94-4A63.7,63.7,0,0,0,439.29,229.05Z"/></g><path class="cls-1" d="M217.21,0h0a153.71,153.71,0,0,0-76.54,20.39C67.3,62.37,42.17,155.34,84.52,228L97.3,250l62.07,106.55L106.89,448H105a18.28,18.28,0,0,0-16.95,12.07l-9.74,25.6c-4.79,12.61,4,26.33,17,26.33H199.52c12.91,0,21.74-13.72,16.95-26.33l-9.74-25.6a18.55,18.55,0,0,0-12.89-11.59l21.3-37a65.23,65.23,0,0,0,14.49,1.63,64.54,64.54,0,0,0,28.89-6.81l23.63,21A31.67,31.67,0,0,0,319,431l1.19-.69v17.88a18.35,18.35,0,0,0-14.6,11.92l-9.68,25.6c-4.77,12.61,4,26.33,16.86,26.33h91.64c12.85,0,21.64-13.72,16.86-26.33l-9.68-25.6A18.37,18.37,0,0,0,397,448.15V385.93l14.12-8.15A31.69,31.69,0,0,0,426.3,344l-6.2-30.31A63.66,63.66,0,0,0,439.29,229L362.94,98,350.16,76C321.75,27.26,270.21,0,217.21,0m0,25.6c45.47,0,87.82,24.12,110.62,63L106.64,215.15a127.23,127.23,0,0,1-10.51-23l47.56-27.2a18.92,18.92,0,0,0,7-26L137.92,117a19.26,19.26,0,0,0-26.19-7L93.64,120.43c.06-.26.13-.52.2-.78a125.74,125.74,0,0,1,59.53-77,128.73,128.73,0,0,1,63.83-17M119,135.42,125.18,146,90.33,166a125.14,125.14,0,0,1-.75-13.71Zm-13.57,351,4.86-12.8h74.2l4.87,12.8Zm99.13-107.91L191.67,400.9,164.58,448H136.4l37.84-66,14.69-25.6,52.54-91.57a38,38,0,0,0,21.39,12.26Zm54.86-145.07A12.4,12.4,0,0,1,282,243a13.34,13.34,0,0,1-1,2.61,12.4,12.4,0,0,1-21.7.38A12.39,12.39,0,0,1,259.42,233.42ZM323,486.4l4.85-12.8h61.49l4.84,12.8ZM345.79,448V415.49l25.6-14.78V448Zm-24.12-76.8,75.18-43.4,4.37,21.33a6.08,6.08,0,0,1-2.91,6.48l-27,15.59-51.12,29.51-14,8.08a6,6,0,0,1-3,.81,6.08,6.08,0,0,1-4-1.53l-16.29-14.45,37.35-21.56M421.05,270.85a38.2,38.2,0,0,1-18.11,23.41l-153.8,88a39.31,39.31,0,0,1-19.51,5.21h-.7L302.4,259.74l.09-.15.78-1.37h0a38,38,0,1,0-67.49-34.85l-61.7,107.54-54.44-93.46L340.82,110.87l76.35,131.07A37.7,37.7,0,0,1,421.05,270.85Z"/></svg>